<?xml version="1.0" encoding="UTF-8"?>
<svg viewBox="0 0 288 288" xmlns="http://www.w3.org/2000/svg">
<svg width="288" height="288" viewBox="0 0 288 288" xmlns="http://www.w3.org/2000/svg">
<svg width="288" height="288" version="1.0" viewBox="0 0 375 375" xmlns="http://www.w3.org/2000/svg">
<defs>
<clipPath id="h">
<path class="color000 svgShape color978273" d="m50 58h268v267h-268z" fill="#0f1b61"/>
</clipPath>
<clipPath id="g">
<path class="color000 svgShape color978273" d="m188.45 1.9297 145.7 152.27-194 185.62-145.7-152.27z" fill="#0f1b61"/>
</clipPath>
<clipPath id="f">
<path class="color000 svgShape color978273" d="m188.45 1.9297 185.63 194-194 185.62-185.62-194z" fill="#0f1b61"/>
</clipPath>
<clipPath id="e">
<path class="color000 svgShape color978273" d="m243.65 211.57h13.5v13.5h-13.5z" fill="#0f1b61"/>
</clipPath>
</defs>
<g class="color000 svgShape color978273" clip-path="url(#h)" fill="#0f1b61">
<g class="color000 svgShape" clip-path="url(#g)">
<g class="color000 svgShape" clip-path="url(#f)">
<path class="color000 svgShape" d="m245.47 307.48c-10.727 5.5547-22.266 9.3984-34.039 11.738-9.6367 1.8516-19.418 2.832-29.211 2.7852-1.3047 0.03125-2.6055-0.085937-3.9062-0.13281-1.3008-0.070312-2.6055-0.097656-3.9062-0.19922l-3.8906-0.35547-1.9492-0.17969-1.9336-0.26172-3.875-0.51953c-1.2891-0.20312-2.5664-0.45703-3.8516-0.67969-2.5781-0.39844-5.1055-1.0273-7.6602-1.5742-0.36719-0.078125-0.75-0.16406-1.1523-0.25-0.39453-0.10938-0.80469-0.22266-1.2344-0.33594-0.85547-0.23828-1.7773-0.49219-2.7539-0.76172-1.9766-0.49609-4.1211-1.2656-6.4922-2.0469-0.58594-0.20313-1.1953-0.38672-1.8047-0.61719-0.60547-0.23438-1.2188-0.47656-1.8477-0.72266-1.2539-0.49219-2.5547-1.0039-3.8984-1.5312-2.6094-1.2148-5.4531-2.3633-8.2695-3.8945-11.48-5.6797-23.824-14.676-34.297-25.531-10.383-10.941-18.824-23.668-23.996-35.387-1.4023-2.8828-2.4258-5.7734-3.5234-8.4375-0.46875-1.3633-0.92187-2.6836-1.3594-3.957-0.21484-0.64062-0.42969-1.2656-0.64063-1.8789-0.20312-0.61719-0.35937-1.2344-0.53516-1.832-0.67969-2.3984-1.3516-4.5781-1.7617-6.5742-0.22656-0.98828-0.4375-1.9219-0.63281-2.7852-0.10156-0.43359-0.19531-0.84766-0.28516-1.25-0.070313-0.40234-0.13672-0.79297-0.19922-1.1602-1.7852-9.6328-2.7031-19.414-2.5898-29.207 0.22656-10.43 1.7305-20.801 4.125-30.965 2.8555-11.664 7.207-23.02 13.227-33.492 5.8984-10.547 13.523-20.109 22.211-28.566 8.832-8.3047 18.723-15.504 29.52-20.926 10.727-5.5547 22.262-9.3984 34.039-11.742 9.6328-1.8477 19.414-2.8281 29.207-2.7812 1.3047-0.03125 2.6055 0.082032 3.9102 0.12891 1.3008 0.070313 2.6055 0.10156 3.9023 0.19922l3.8945 0.35938 1.9453 0.17578 1.9375 0.26562 3.875 0.51953c1.2852 0.20312 2.5625 0.45703 3.8477 0.67578 2.5781 0.40234 5.1094 1.0312 7.6602 1.5742 0.36719 0.082031 0.75 0.16797 1.1523 0.25391 0.39453 0.10938 0.80859 0.21875 1.2344 0.33594 0.85547 0.23437 1.7773 0.48828 2.7578 0.76172 1.9727 0.49609 4.1211 1.2656 6.4883 2.043 0.58984 0.20312 1.1992 0.39062 1.8047 0.62109 0.60547 0.23438 1.2227 0.47656 1.8516 0.72266 1.2539 0.49219 2.5547 1.0039 3.8945 1.5312 2.6133 1.2109 5.457 2.3633 8.2695 3.8906 11.484 5.6836 23.824 14.68 34.301 25.535 10.379 10.941 18.82 23.668 23.992 35.387 1.4023 2.8828 2.4258 5.7695 3.5234 8.4375 0.46875 1.3594 0.92188 2.6836 1.3594 3.957 0.21875 0.63672 0.43359 1.2656 0.64062 1.8789 0.20312 0.61719 0.35938 1.2344 0.53906 1.832 0.67578 2.3984 1.3477 4.5781 1.7578 6.5703 0.22656 0.99219 0.4375 1.9219 0.63672 2.7891 0.097657 0.42969 0.19141 0.84766 0.28125 1.25 0.070313 0.40234 0.13672 0.78906 0.20313 1.1602 1.7852 9.6328 2.6992 19.414 2.5859 29.207-0.22266 10.43-1.7305 20.801-4.125 30.965-2.8555 11.664-7.207 23.02-13.227 33.492-5.8945 10.543-13.523 20.109-22.207 28.566-8.832 8.3047-18.723 15.5-29.52 20.926zm31.668-18.809 0.007812-0.007812c8.8672-8.6367 16.664-18.402 22.703-29.176 6.1641-10.695 10.613-22.309 13.5-34.23l1.2539-5.6094s0.29688-1.5547 0.73438-3.8867c0.50781-2.3203 0.85547-5.4688 1.3164-8.5977 0.26562-3.1523 0.64453-6.293 0.68359-8.6641 0.10547-2.3711 0.17187-3.9492 0.17187-3.9492s0.011719-0.39453 0.015626-1.0859c0-0.69141 0.007812-1.6797 0.011718-2.8633 0.074219-2.375-0.11719-5.5273-0.24219-8.6875-0.11328-1.5742-0.27734-3.1484-0.40234-4.625-0.070313-0.73828-0.13281-1.4492-0.19531-2.125-0.09375-0.67188-0.18359-1.3086-0.26562-1.8984-0.32422-2.3477-0.54297-3.9141-0.54297-3.9141s-0.03125-0.35547-0.13281-0.88672c-0.09375-0.52734-0.21484-1.2344-0.33984-1.9414-0.24609-1.4141-0.49609-2.8281-0.49609-2.8281-0.0625-0.37891-0.13281-0.77344-0.20312-1.1875-0.089844-0.41016-0.18359-0.83594-0.28516-1.2812-0.19922-0.88672-0.41406-1.8398-0.64453-2.8516-0.41406-2.043-1.0977-4.2734-1.7891-6.7305-0.17969-0.60938-0.34375-1.2422-0.54688-1.875-0.21484-0.62891-0.43359-1.2695-0.65234-1.9219-0.44922-1.3086-0.91016-2.6602-1.3867-4.0586-1.1211-2.7266-2.168-5.6836-3.6016-8.6328-5.2852-12.004-13.922-25.039-24.551-36.234-10.711-11.109-23.355-20.312-35.113-26.121-2.8828-1.5625-5.793-2.7422-8.4688-3.9766-1.375-0.53906-2.7031-1.0625-3.9922-1.5664-0.64062-0.25-1.2734-0.49609-1.8906-0.73828-0.62109-0.23047-1.2461-0.42188-1.8516-0.62891-2.4219-0.79688-4.6211-1.5781-6.6406-2.082-1.0039-0.27734-1.9453-0.53125-2.8242-0.77344-0.4375-0.11719-0.85937-0.23047-1.2656-0.33984-0.41016-0.089844-0.80469-0.17578-1.1797-0.25391 0 0-1.3984-0.3125-2.8008-0.62109-0.70312-0.15234-1.4023-0.30859-1.9258-0.42578-0.52344-0.125-0.87891-0.16797-0.87891-0.16797s-1.5547-0.28906-3.8867-0.71875c-0.58594-0.10547-1.2148-0.22266-1.8828-0.34766-0.67188-0.089843-1.3828-0.1875-2.1172-0.28516-1.4688-0.19531-3.0312-0.42969-4.6016-0.60938-3.1523-0.26172-6.293-0.59375-8.668-0.625-1.1836-0.046875-2.1719-0.085937-2.8633-0.11328-0.6875-0.027344-1.0859-0.03125-1.0859-0.03125s-1.5781-0.003906-3.9492-0.003906c-2.3711-0.066406-5.5273 0.17578-8.6875 0.30078-3.1445 0.32422-6.3047 0.53125-8.6484 0.93359-2.3477 0.33984-3.9141 0.5625-3.9141 0.5625l-5.6562 1.0078c-12.043 2.3555-23.84 6.293-34.797 11.977-11.027 5.5586-21.125 12.918-30.148 21.398l-0.007812 0.003907-0.0625 0.0625-0.066407 0.0625-0.003906 0.007812c-8.8672 8.6367-16.668 18.402-22.707 29.172-6.1602 10.699-10.613 22.309-13.496 34.234l-1.2578 5.6094s-0.29297 1.5547-0.73438 3.8867c-0.50391 2.3203-0.85156 5.4688-1.3125 8.5977-0.26562 3.1523-0.64844 6.293-0.6875 8.6641-0.10156 2.3672-0.17188 3.9492-0.17188 3.9492s-0.011719 0.39453-0.011719 1.0859c-0.003906 0.69141-0.011719 1.6758-0.015625 2.8633-0.074219 2.3711 0.12109 5.5273 0.24609 8.6875 0.10938 1.5742 0.27344 3.1445 0.40234 4.6211 0.066407 0.73828 0.13281 1.4531 0.19531 2.1289 0.09375 0.67188 0.17969 1.3086 0.26172 1.8945 0.32812 2.3516 0.54688 3.9141 0.54688 3.9141s0.027343 0.35938 0.12891 0.88672c0.09375 0.53125 0.21875 1.2383 0.33984 1.9453 0.25 1.4141 0.49609 2.8281 0.49609 2.8281 0.066407 0.375 0.13281 0.77344 0.20313 1.1875 0.089843 0.41016 0.1875 0.83594 0.28516 1.2812 0.19922 0.88672 0.41797 1.8359 0.64453 2.8516 0.41797 2.0391 1.1016 4.2734 1.7891 6.7305 0.17969 0.60938 0.34375 1.2422 0.55078 1.875 0.21094 0.62891 0.42969 1.2695 0.65234 1.9219 0.44531 1.3047 0.91016 2.6602 1.3867 4.0547 1.1172 2.7305 2.168 5.6875 3.5977 8.6367 5.2891 12 13.926 25.039 24.551 36.234 10.715 11.105 23.359 20.309 35.117 26.121 2.8828 1.5586 5.793 2.7383 8.4688 3.9766 1.3711 0.53906 2.7031 1.0625 3.9883 1.5625 0.64453 0.25391 1.2734 0.5 1.8945 0.73828 0.62109 0.23438 1.2461 0.42578 1.8477 0.63281 2.4258 0.79687 4.625 1.5781 6.6445 2.082 1.0039 0.27344 1.9453 0.53125 2.8203 0.76953 0.4375 0.12109 0.86328 0.23438 1.2656 0.34375 0.41406 0.085938 0.80469 0.17188 1.1797 0.25391 0 0 1.4023 0.30859 2.8047 0.62109 0.69922 0.15234 1.3984 0.30859 1.9258 0.42188 0.51953 0.125 0.87891 0.17188 0.87891 0.17188s1.5547 0.28516 3.8867 0.71484c0.58203 0.10938 1.2148 0.22656 1.8789 0.34766 0.67578 0.09375 1.3828 0.19141 2.1172 0.28906 1.4727 0.19141 3.0352 0.42578 4.6055 0.60938 3.1484 0.26172 6.293 0.59375 8.6641 0.625 1.1836 0.046874 2.1719 0.085937 2.8633 0.11328 0.69141 0.027343 1.0859 0.03125 1.0859 0.03125s1.582 0 3.9492 0.003906c2.375 0.066406 5.5273-0.17578 8.6875-0.30469 3.1484-0.32031 6.3086-0.52734 8.6484-0.92969 2.3516-0.33984 3.9141-0.56641 3.9141-0.56641l5.6602-1.0039c12.039-2.3555 23.836-6.293 34.793-11.977 11.027-5.5586 21.129-12.922 30.148-21.398l0.007812-0.003907 0.066407-0.0625 0.0625-0.0625"/>
</g>
</g>
</g>
<path class="color000 svgShape color978273" transform="translate(165.11 325.9)" d="m13.672-12.188-4.9219-0.21875-0.5625 12.766-2.9531-0.125 0.5625-12.766-4.9375-0.21875 0.125-2.625 12.812 0.5625z" fill="#0f1b61"/>
<path class="color000 svgShape color978273" transform="translate(188.66 326.17)" d="m7.6875-3.6094c0.71875-0.10156 1.2969-0.32812 1.7344-0.67188 0.44531-0.34375 0.78516-0.76562 1.0156-1.2656 0.22656-0.5 0.36328-1.0508 0.40625-1.6562 0.039062-0.61328 0.015625-1.2383-0.078125-1.875l-1.0469-7.7812 2.9375-0.39062 1.0469 7.7812c0.14453 1.043 0.15625 2.043 0.03125 3-0.11719 0.94922-0.39844 1.8047-0.84375 2.5625-0.4375 0.76172-1.0586 1.4023-1.8594 1.9219-0.79297 0.51172-1.7773 0.84375-2.9531 1-1.2188 0.16797-2.2812 0.10156-3.1875-0.20312-0.90625-0.3125-1.6719-0.78125-2.2969-1.4062s-1.1211-1.3789-1.4844-2.2656c-0.36719-0.89453-0.61719-1.832-0.75-2.8125l-1.0469-7.7812 2.9688-0.40625 1.0469 7.7812c0.09375 0.64844 0.23828 1.2617 0.4375 1.8438 0.19531 0.57422 0.47266 1.0742 0.82812 1.5 0.36328 0.41797 0.80078 0.73047 1.3125 0.9375 0.50781 0.21094 1.1016 0.27344 1.7812 0.1875z" fill="#0f1b61"/>
<path class="color000 svgShape color978273" transform="translate(214.76 321.68)" d="m1.2188-10.828 3.1406 9.3594-2.8281 0.95312-4.9062-14.609 2.1875-0.73438 10.828 7.0312-3.2188-9.5781 2.8438-0.95312 4.9062 14.594-2.3125 0.78125z" fill="#0f1b61"/>
<path class="color000 svgShape color978273" transform="translate(239.77 312.23)" d="m9.8906-7.5469c-0.48047 1.6797-1.4336 2.918-2.8594 3.7188-0.88672 0.5-1.8203 0.79297-2.7969 0.875-0.96875 0.074219-1.9141-0.035156-2.8281-0.32812-0.91797-0.28906-1.7812-0.76562-2.5938-1.4219s-1.4883-1.4688-2.0312-2.4375c-0.51953-0.91406-0.83594-1.875-0.95312-2.875-0.125-1-0.066406-1.9688 0.17188-2.9062 0.24219-0.94531 0.65625-1.8203 1.25-2.625 0.59375-0.8125 1.3594-1.4766 2.2969-2 1.2578-0.70703 2.4883-1.0508 3.6875-1.0312 1.207 0.023437 2.2891 0.35547 3.25 1l-1.1406 2.5312c-0.73047-0.47656-1.5-0.72266-2.3125-0.73438-0.8125-0.007812-1.5742 0.1875-2.2812 0.59375-0.5625 0.32422-1.0156 0.74219-1.3594 1.25-0.34375 0.5-0.5625 1.0547-0.65625 1.6562-0.10156 0.60547-0.09375 1.2305 0.03125 1.875 0.125 0.63672 0.35547 1.2578 0.6875 1.8594 0.35547 0.625 0.78516 1.1641 1.2969 1.6094 0.51953 0.4375 1.0664 0.76172 1.6406 0.96875 0.58203 0.19922 1.1797 0.27734 1.7969 0.23438 0.61328-0.039063 1.2031-0.21875 1.7656-0.53125 1.3008-0.72656 2.1328-2 2.5-3.8125l-0.53125-0.95312-2.7188 1.5156-1.0625-1.9062 4.875-2.7344 3.875 6.9062-2.1562 1.2188z" fill="#0f1b61"/>
<path class="color000 svgShape color978273" transform="translate(273.23 289.3)" d="m-0.98438-21.172 11.094 10.688-2.0625 2.1406-4.7344-4.5625-4.8594 5.0312 4.7344 4.5625-2.0781 2.1562-11.094-10.688 2.0781-2.1562 4.4844 4.3125 4.8594-5.0312-4.4844-4.3125z" fill="#0f1b61"/>
<path class="color000 svgShape color978273" transform="translate(290.83 269.67)" d="m4.5625-6.7969c-0.61719 0.94922-1.3594 1.6875-2.2344 2.2188-0.86719 0.52344-1.7812 0.85938-2.75 1.0156-0.97656 0.14844-1.9609 0.11719-2.9531-0.09375-0.98828-0.20703-1.8945-0.57812-2.7188-1.1094-0.86328-0.5625-1.582-1.2578-2.1562-2.0938-0.57031-0.84375-0.97656-1.7422-1.2188-2.7031-0.23828-0.95703-0.28125-1.9375-0.125-2.9375 0.14844-1.0078 0.51172-1.9688 1.0938-2.875 0.61719-0.9375 1.3672-1.6641 2.25-2.1875 0.875-0.51953 1.8047-0.84766 2.7812-0.98438 0.96875-0.14453 1.9531-0.11328 2.9531 0.09375 0.98828 0.21094 1.8906 0.57422 2.7031 1.0938 0.85156 0.5625 1.5664 1.2617 2.1406 2.0938 0.57031 0.83594 0.97266 1.7266 1.2031 2.6719 0.23828 0.9375 0.28516 1.9141 0.14062 2.9219-0.14844 1.0117-0.51562 1.9688-1.1094 2.875zm-8.9844-0.51562c0.5625 0.36719 1.1562 0.63672 1.7812 0.8125 0.625 0.16797 1.2461 0.21875 1.8594 0.15625 0.60547-0.0625 1.1758-0.25 1.7188-0.5625 0.55078-0.3125 1.0195-0.76562 1.4062-1.3594 0.38281-0.60156 0.60938-1.2188 0.67188-1.8438 0.070313-0.625 0.003906-1.2344-0.20312-1.8281-0.21094-0.59375-0.51562-1.1406-0.92188-1.6406s-0.875-0.92188-1.4062-1.2656c-0.5625-0.36328-1.1562-0.625-1.7812-0.78125-0.63281-0.16406-1.2539-0.21875-1.8594-0.15625-0.61328 0.054688-1.1914 0.23438-1.7344 0.54688-0.55078 0.3125-1.0156 0.76172-1.3906 1.3438-0.39453 0.60547-0.61719 1.2266-0.67188 1.8594-0.0625 0.63672 0.007813 1.2461 0.20312 1.8281 0.19922 0.58594 0.50781 1.125 0.92188 1.625 0.40625 0.49219 0.875 0.91406 1.4062 1.2656z" fill="#0f1b61"/>
<path class="color000 svgShape color978273" transform="translate(304.47 246.89)" d="m-11.922-11.453 1.0312-2.4375 16.469 0.5-1.1875 2.8438-4.0938-0.15625-2.0781 4.9844 3 2.7812-1.1719 2.8438zm10.047 0.4375-6.3906-0.34375 4.7188 4.3594z" fill="#0f1b61"/>
<path class="color000 svgShape color978273" transform="translate(313.21 223.74)" d="m-8.6875-6.5469 9.6562 2.0625-0.625 2.9062-15.062-3.2344 0.48438-2.25 11.562-5.7344-9.875-2.1094 0.64062-2.9375 15.047 3.2188-0.51562 2.3906z" fill="#0f1b61"/>
<path class="color000 svgShape color978273" transform="translate(317.83 197.4)" d="m-1.4531-12.359c1.1992 1.2617 1.7812 2.7109 1.75 4.3438-0.023437 1.0234-0.24609 1.9766-0.67188 2.8594-0.42578 0.875-1 1.6367-1.7188 2.2812-0.72656 0.63672-1.5781 1.1367-2.5469 1.5-0.97656 0.36719-2.0234 0.53125-3.1406 0.5-1.0508-0.019531-2.0352-0.23438-2.9531-0.64062-0.92578-0.40625-1.7344-0.95312-2.4219-1.6406s-1.2227-1.4883-1.6094-2.4062c-0.39453-0.92578-0.58203-1.9258-0.5625-3 0.03125-1.4453 0.36719-2.6797 1-3.7031 0.63672-1.0195 1.4688-1.7812 2.5-2.2812l1.6094 2.2656c-0.78125 0.38672-1.3789 0.92969-1.7969 1.625-0.42578 0.6875-0.64844 1.4453-0.67188 2.2656-0.007812 0.64844 0.11719 1.2461 0.375 1.7969 0.26172 0.55469 0.625 1.0273 1.0938 1.4219 0.46875 0.38672 1.0156 0.69531 1.6406 0.92188 0.61719 0.21875 1.2734 0.33984 1.9688 0.35938 0.71875 0.011719 1.3984-0.085937 2.0312-0.29688 0.63672-0.21875 1.1875-0.52344 1.6562-0.92188 0.46875-0.39453 0.84375-0.86719 1.125-1.4219 0.28125-0.55078 0.42969-1.1484 0.4375-1.7969 0.042969-1.4883-0.625-2.8516-2-4.0938l-1.0938-0.015625-0.0625 3.1094-2.1875-0.0625 0.125-5.5781 7.9219 0.1875-0.0625 2.4688z" fill="#0f1b61"/>
<path class="color000 svgShape color978273" transform="translate(102.88 223.83)" d="m68.078-92.023c-6.5859-0.94141-13.258-1.1992-20.012-1.1992-13.172 0-26.258 0.68359-39.344 2.6523-1.5391 0.17187-3.4219 1.9648-2.9922 3.6758 0.34375 1.3711 1.7109 1.7109 3.0781 1.7109 0.51172 0 0.94141 0 1.3672-0.085937 8.2109-1.4531 16.422-1.793 24.461-2.0508 1.3711 22.75 0.94141 45.754 0 68.504-0.25391 6.1602-0.68359 12.23-1.1094 18.391-0.085938 0.85156 0.85547 1.2812 2.1367 1.2812 2.1367 0 5.0469-1.1133 5.1328-2.4805 2.1367-23.863 2.3086-47.98 1.793-71.926-0.082032-4.6172-0.16797-9.3242-0.42578-13.941h5.1328c6.1562 0 12.398 0.17188 18.387 1.0273 1.8828 0 3.8477-0.25781 4.7891-2.2227 0.76953-1.7969-0.68359-3.168-2.3945-3.3359z" fill="#0f1b61"/>
<path class="color000 svgShape color978273" transform="translate(168.92 223.83)" d="m71.07-2.4805c-3.4219-28.137-5.0469-58.754-1.7969-87.062 0.17187-1.1992-1.0234-1.625-2.3945-1.625-2.1367 0-4.875 1.0234-5.043 2.5625-1.5391 13.344-1.3711 26.516-1.0273 39.344-5.0469-0.51562-10.008-0.59766-14.969-0.59766-9.0625 0-17.957 0.42578-26.938 1.4531 0.16797-14.199-0.25781-27.969-1.8828-41.652-0.085937-0.76953-1.0273-1.1094-2.1367-1.1094-2.3125 0-5.5625 1.2812-5.3047 3.0781 2.9102 26.855 4.0195 60.977-2.3945 86.121-2.5664 7.6133-6.2422 19.586-19.414 20.441-6.2422 0-11.117-3.5039-15.652-7.4414-0.42578-0.33984-1.0234-0.51172-1.793-0.51172-2.6523 0-6.5 1.9688-5.1328 3.3359 6.0703 5.3008 13.77 8.7227 21.895 8.7227 10.348-0.17188 18.902-6.2422 23.52-15.309 7.7812-15.48 8.0391-36.348 8.2969-52.512 7.9531-0.94141 15.906-1.1133 23.859-1.1133 5.8164 0 11.633 0.17188 17.535 0.94141 0.082031 0 0.25391 0 0.51172 0.085937 0.25781 15.566 0.94141 30.359 2.8203 44.902 0.085938 0.85156 1.0273 1.1953 2.1406 1.1953 2.3086 0 5.5586-1.3672 5.3008-3.25z" fill="#0f1b61"/>
<g class="color000 svgShape color978273" clip-path="url(#e)" fill="#0f1b61">
<path class="color000 svgShape" d="m250.4 211.57c-3.7266 0-6.75 3.0234-6.75 6.75 0 3.7305 3.0234 6.75 6.75 6.75 3.7305 0 6.75-3.0195 6.75-6.75 0-3.7266-3.0195-6.75-6.75-6.75"/>
</g>
</svg>
</svg>
</svg>
